<?xml version="1.0" encoding="UTF-8"?>
<svg xmlns="http://www.w3.org/2000/svg" width="672.8" height="159.3" version="1.1" viewBox="0 0 672.8 159.3">
  <defs>
    <style>
      .cls-1 {
        fill: #092b28;
      }
    </style>
  </defs>
  <!-- Generator: Adobe Illustrator 28.7.5, SVG Export Plug-In . SVG Version: 1.2.0 Build 176)  -->
  <g>
    <g id="Layer_1">
      <g id="Layer_1-2" data-name="Layer_1">
        <g>
          <g>
            <path class="cls-1" d="M218.1,57c0-1.4.5-2.6,1.4-3.5s2-1.4,3.4-1.4,2.4.5,3.3,1.4c.9.9,1.4,2.1,1.4,3.5s-.5,2.5-1.4,3.4c-.9.9-2,1.4-3.3,1.4s-2.5-.5-3.4-1.4c-.9-.9-1.4-2-1.4-3.4ZM219.7,106.6c-.6,0-.8-.3-.8-1v-37.1c0-.6.3-1,.8-1h.5c2,0,3.7.6,4.8,1.8,1.2,1.2,1.7,3,1.7,5.5v30.7c0,.6-.3,1-.8,1h-6.2Z"/>
            <path class="cls-1" d="M245.5,72.8c1.1-1.8,2.8-3.2,4.9-4.4,2.1-1.2,4.6-1.8,7.4-1.8,4.9,0,8.8,1.5,11.7,4.6,2.8,3,4.2,7.2,4.2,12.4v21.9c0,.6-.3,1-.8,1h-6.3c-.6,0-.8-.3-.8-1v-20.5c0-3.7-.9-6.5-2.7-8.4-1.8-1.8-4.1-2.8-7.1-2.8s-5.7.9-7.5,2.8c-1.8,1.9-2.8,4.8-2.8,8.7v20c0,.6-.2,1-.7,1h-6.3c-.6,0-.8-.3-.8-1v-37.1c0-.6.3-1,.8-1h.5c1.6,0,3,.5,4.1,1.4s1.8,2.2,2.1,3.9v.3Z"/>
            <path class="cls-1" d="M297.9,97.8l9.3-29.2c.3-.8.8-1.2,1.7-1.2h5.8c.5,0,.7.3.5.8l-12.9,37.3c-.2.6-.6.8-1.1.8h-6.8c-.6,0-1-.3-1.3-.8l-12.9-37.3c-.2-.6,0-.8.5-.8h1.7c2.1,0,3.8.4,4.9,1.3,1.2.9,2.1,2.6,2.9,5.2l7.5,23.7.2.2Z"/>
            <path class="cls-1" d="M340.2,107.6c-6,0-10.8-1.9-14.4-5.6s-5.4-8.6-5.4-14.8,1.8-11.1,5.4-14.9c3.6-3.8,8.3-5.7,14.3-5.7s10.8,1.9,14.4,5.7c3.6,3.8,5.4,8.7,5.4,14.8s-1.8,11.1-5.4,14.8c-3.6,3.7-8.4,5.6-14.4,5.6h.1ZM340.1,100.1c3.3,0,6.1-1.1,8.3-3.2,2.2-2.1,3.3-5.3,3.3-9.6s-1.1-7.4-3.3-9.6c-2.2-2.3-5-3.4-8.3-3.4s-6.1,1.1-8.3,3.4c-2.1,2.3-3.2,5.5-3.2,9.6s1.1,7.4,3.2,9.5c2.1,2.2,4.9,3.3,8.3,3.3Z"/>
            <path class="cls-1" d="M368.8,57c0-1.4.5-2.6,1.4-3.5s2-1.4,3.4-1.4,2.4.5,3.3,1.4c.9.9,1.4,2.1,1.4,3.5s-.5,2.5-1.4,3.4-2,1.4-3.3,1.4-2.5-.5-3.4-1.4-1.4-2-1.4-3.4ZM370.4,106.6c-.6,0-.8-.3-.8-1v-37.1c0-.6.3-1,.8-1h.5c2,0,3.7.6,4.8,1.8,1.2,1.2,1.7,3,1.7,5.5v30.7c0,.6-.3,1-.8,1h-6.3.1Z"/>
            <path class="cls-1" d="M416.1,76.6c-1.6-.8-3-1.5-4.4-1.9s-3.1-.6-5-.6c-3.3,0-6.1,1.1-8.2,3.4-2.2,2.3-3.2,5.5-3.2,9.8s1.1,7.3,3.2,9.7c2.1,2.4,5.2,3.6,9.1,3.6s4.3-.4,5.9-1.3c1.6-.8,2.8-1.7,3.8-2.7s.3-.3.6-.5c.2-.2.5-.3.7-.3.7,0,1.1.5,1.1,1.6s-.5,2.9-1.5,4.5-2.5,2.9-4.6,4c-2,1.1-4.5,1.6-7.6,1.6-5.6,0-10.1-1.8-13.6-5.5-3.5-3.6-5.2-8.6-5.2-15s.8-7.8,2.4-10.9c1.6-3.1,3.9-5.5,6.8-7.2,2.9-1.7,6.3-2.5,10.1-2.5s3.4.1,4.8.4c1.4.2,2.7.7,4.1,1.2,2.8,1.1,3.7,3.1,3,5.8l-.5,2.1c-.1.6-.4.8-.7.8s-.5-.1-.8-.3l-.3.2Z"/>
            <path class="cls-1" d="M433.1,89.9c.4,3.7,1.8,6.4,4,8.1,2.3,1.7,5.2,2.6,8.9,2.6s5.3-.4,7.1-1.2c1.8-.8,3.4-1.7,4.9-2.8.3-.1.5-.3.8-.5.2-.2.5-.3.7-.3.4,0,.6.2.8.5s.3.7.3,1c0,1.5-.6,3-1.7,4.6-1.2,1.6-2.9,2.9-5.2,4s-5.1,1.6-8.5,1.6-6.7-.7-9.7-2.2c-3-1.4-5.4-3.7-7.3-6.7-1.9-3-2.8-6.9-2.8-11.6s.8-7.5,2.3-10.5c1.6-3.1,3.7-5.5,6.5-7.3s6-2.7,9.7-2.7,7.5.9,10.1,2.6c2.5,1.7,4.4,4,5.6,6.7s1.7,5.6,1.7,8.6,0,1.7,0,2.3,0,1.2-.2,1.8c0,.8-.6,1.3-1.6,1.3h-26.4ZM433.3,83.8h20c0-1.6-.2-3.2-.7-4.8s-1.5-2.9-2.9-3.9c-1.4-1.1-3.4-1.6-6-1.6s-5.4.9-7.2,2.7-2.9,4.3-3.2,7.6h0Z"/>
            <path class="cls-1" d="M474.5,74.5h-7.2c-.6,0-.8-.3-.8-.8v-5.3c0-.6.3-.8.8-.8h7.2v-13.1c0-.6.2-1,.7-1h.5c2,0,3.7.6,4.8,1.9,1.2,1.2,1.7,3.1,1.7,5.6v6.7h8.2c.5,0,.7.3.7.8v5.3c0,.6-.2.8-.7.8h-8.2v31.1c0,.6-.3,1-.8,1h-6.3c-.5,0-.7-.3-.7-1v-31.1h0Z"/>
            <path class="cls-1" d="M507.3,73.1c1.3-2.2,2.8-3.7,4.6-4.5,1.8-.8,4.1-1.2,6.9-1.2h1.2c.6,0,.8.3.8.8v5.8c0,.6-.3,1-.8,1h-2.5c-3.7,0-6.3,1-7.7,2.9-1.4,1.9-2.1,4.9-2.1,9v18.6c0,.6-.2,1-.7,1h-6.3c-.6,0-.8-.3-.8-1v-37.2c0-.6.3-.8.8-.8h.5c1.8,0,3.2.5,4.3,1.4,1.1,1,1.7,2.4,2,4.2h-.2Z"/>
            <path class="cls-1" d="M546.5,107.6c-6,0-10.8-1.9-14.4-5.6s-5.4-8.6-5.4-14.8,1.8-11.1,5.4-14.9c3.6-3.8,8.3-5.7,14.3-5.7s10.8,1.9,14.4,5.7,5.4,8.7,5.4,14.8-1.8,11.1-5.4,14.8c-3.6,3.7-8.4,5.6-14.4,5.6h.1ZM546.4,100.1c3.3,0,6.1-1.1,8.3-3.2,2.2-2.1,3.3-5.3,3.3-9.6s-1.1-7.4-3.3-9.6c-2.2-2.3-5-3.4-8.3-3.4s-6.1,1.1-8.3,3.4c-2.1,2.3-3.2,5.5-3.2,9.6s1.1,7.4,3.2,9.5c2.1,2.2,4.9,3.3,8.3,3.3Z"/>
            <path class="cls-1" d="M583.4,72.8c1.1-1.8,2.8-3.2,4.9-4.4s4.6-1.8,7.4-1.8c4.9,0,8.8,1.5,11.7,4.6,2.8,3,4.2,7.2,4.2,12.4v21.9c0,.6-.3,1-.8,1h-6.3c-.6,0-.8-.3-.8-1v-20.5c0-3.7-.9-6.5-2.7-8.4-1.8-1.8-4.1-2.8-7.1-2.8s-5.7.9-7.5,2.8c-1.8,1.9-2.8,4.8-2.8,8.7v20c0,.6-.2,1-.7,1h-6.3c-.6,0-.8-.3-.8-1v-37.1c0-.6.3-1,.8-1h.5c1.6,0,3,.5,4.1,1.4s1.8,2.2,2.1,3.9v.3Z"/>
            <path class="cls-1" d="M621.9,57c0-1.4.5-2.6,1.4-3.5s2-1.4,3.4-1.4,2.4.5,3.3,1.4,1.4,2.1,1.4,3.5-.5,2.5-1.4,3.4-2,1.4-3.3,1.4-2.5-.5-3.4-1.4-1.4-2-1.4-3.4ZM623.5,106.6c-.6,0-.8-.3-.8-1v-37.1c0-.6.3-1,.8-1h.5c2,0,3.7.6,4.8,1.8,1.2,1.2,1.8,3,1.8,5.5v30.7c0,.6-.3,1-.8,1h-6.3Z"/>
            <path class="cls-1" d="M669.2,76.6c-1.6-.8-3-1.5-4.4-1.9s-3.1-.6-5-.6c-3.3,0-6.1,1.1-8.2,3.4-2.2,2.3-3.2,5.5-3.2,9.8s1.1,7.3,3.2,9.7c2.1,2.4,5.2,3.6,9.1,3.6s4.3-.4,5.9-1.3c1.6-.8,2.8-1.7,3.8-2.7s.3-.3.6-.5c.2-.2.5-.3.7-.3.7,0,1.1.5,1.1,1.6s-.5,2.9-1.5,4.5-2.5,2.9-4.6,4c-2,1.1-4.5,1.6-7.6,1.6-5.6,0-10.1-1.8-13.6-5.5-3.5-3.6-5.2-8.6-5.2-15s.8-7.8,2.4-10.9c1.6-3.1,3.9-5.5,6.8-7.2s6.3-2.5,10.1-2.5,3.4.1,4.8.4c1.4.2,2.7.7,4.1,1.2,2.8,1.1,3.7,3.1,3,5.8l-.5,2.1c-.1.6-.4.8-.7.8s-.5-.1-.8-.3l-.3.2Z"/>
          </g>
          <path class="cls-1" d="M148.8,21.3c-11.5,0-22.8,3.2-32.8,9.1h0c-6.7,4-14,6.8-21.6,8.1V2h-14.4c-11.5,0-22.8,3.2-32.8,9.1-10,5.9-21.2,9.1-32.8,9.1H0v57.3h14.4c11.5,0,22.8-3.2,32.8-9.1s21.2-9.1,32.8-9.1h13.2l-24.4,7.4v16.5c-7.6,1.4-14.9,4.1-21.6,8.1-9.9,6-21.2,9.1-32.8,9.1H0v57.3h14.4c11.5,0,22.8-3.2,32.8-9.1s21.2-9.1,32.8-9.1h14.4v-34.9l-25.6-7.6h14.4c11.5,0,22.8-3.2,32.8-9.1h0c9.9-6,21.2-9.1,32.8-9.1h14.4V21.3h-14.4,0Z"/>
        </g>
      </g>
    </g>
  </g>
</svg>